# AST/ASF file generated using VICON BodyLanguage
# -----------------------------------------------
:version 1.10
:name VICON
:units
  mass 1.0
  length 0.45
  angle deg
:documentation
   .ast/.asf automatically generated from VICON data using
   VICON BodyBuilder and BodyLanguage model FoxedUp or BRILLIANT.MOD
:root
   order TX TY TZ RX RY RZ
   axis XYZ
   position 0 0 0  
   orientation 0 -0 0 
:bonedata
  begin
     id 1 
     name lhipjoint
     direction 0.500677 -0.737119 0.453848 
     length 2.34727 
     axis 0 -0 0  XYZ
  end
  begin
     id 2 
     name lfemur
     direction 0.34202 -0.939693 0  
     length 7.53653  
     axis 0 -0 20  XYZ
    dof rx ry rz
    limits (-160.0 20.0)
           (-70.0 70.0)
           (-60.0 70.0)
  end
  begin
     id 3 
     name ltibia
     direction 0.34202 -0.939693 0   
     length 6.85572   
     axis 0 -0 20   XYZ
    dof rx
    limits (-10.0 170.0)
  end
  begin
     id 4 
     name lfoot
     direction 0.155313 -0.426718 0.890949   
     length 2.18324   
     axis -90 -1.13533e-015 20   XYZ
    dof rx rz
    limits (-45.0 90.0)
           (-70.0 20.0)
  end
  begin
     id 5 
     name ltoes
     direction 1.53474e-011 -4.21647e-011 1   
     length 1.06748   
     axis -90 -1.13533e-015 20   XYZ
    dof rx
    limits (-90.0 20.0)
  end
  begin
     id 6 
     name rhipjoint
     direction -0.632471 -0.659587 0.406111   
     length 2.62319  
     axis 0 -0 0  XYZ 
  end
  begin
     id 7 
     name rfemur
     direction -0.34202 -0.939693 0   
     length 7.21735   
     axis 0 -0 -20   XYZ
    dof rx ry rz
    limits (-160.0 20.0)
           (-70.0 70.0)
           (-70.0 60.0)
  end
  begin
     id 8 
     name rtibia
     direction -0.34202 -0.939693 0   
     length 7.02558   
     axis 0 -0 -20   XYZ
    dof rx
    limits (-10.0 170.0)
 end
 begin
     id 9 
     name rfoot
     direction -0.16057 -0.441164 0.882945   
     length 2.10014  
     axis -90 1.13533e-015 -20   XYZ
    dof rx rz
    limits (-45.0 90.0)
           (-20.0 70.0)
  end
  begin
     id 10 
     name rtoes
     direction -1.53553e-011 -4.2192e-011 1   
     length 1.02554   
     axis -90 1.13533e-015 -20   XYZ
    dof rx
    limits (-90.0 20.0)
  end
  begin
     id 11 
     name lowerback
     direction 0.0401429 0.998861 -0.0258085   
     length 1.80848   
     axis 0 -0 0   XYZ
    dof rx ry rz
    limits (-20.0 45.0)
           (-30.0 30.0)
           (-30.0 30.0)
  end
  begin
     id 12 
     name upperback
     direction -0.0130978 0.999914 -0.000352645   
     length 1.8116   
     axis 0 -0 0   XYZ
    dof rx ry rz
    limits (-20.0 45.0)
           (-30.0 30.0)
           (-30.0 30.0)
  end
  begin
     id 13 
     name thorax
     direction -0.0300198 0.999453 0.0138573   
     length 1.81778   
     axis 0 -0 0   XYZ
    dof rx ry rz
    limits (-20.0 45.0)
           (-30.0 30.0)
           (-30.0 30.0)
  end
  begin
     id 14 
     name lowerneck
     direction -0.0401726 0.999191 -0.00173647   
     length 2.10594   
     axis 0 -0 0   XYZ
    dof rx ry rz
    limits (-20.0 45.0)
           (-30.0 30.0)
           (-30.0 30.0)
  end
  begin
     id 15 
     name upperneck
     direction 0.0119835 0.998501 0.0534085   
     length 2.07325   
     axis 0 -0 0   XYZ
    dof rx ry rz
    limits (-20.0 45.0)
           (-30.0 30.0)
           (-30.0 30.0)
  end
  begin
     id 16
     name head
     direction 0.00628309 0.999826 0.0175921  
     length 2.15096  
     axis 0 -0 0   XYZ
    dof rx ry rz
    limits (-20.0 45.0)
           (-30.0 30.0)
           (-30.0 30.0)
  end
  begin
     id 17 
     name lclavicle
     direction 0.895501 0.429681 -0.115981  
     length 4.18092  
     axis 0 -0 0   XYZ
    dof ry rz
    limits (-20.0 10.0)
           (0.0 20.0)
  end
  begin
     id 18 
     name lhumerus
     direction 1 -4.48961e-011 -3.38433e-028   
     length 5.77237   
     axis 180 -30 -90   XYZ
    dof rx ry rz
    limits (-60.0 90.0)
           (-90.0 90.0)
           (-90.0 90.0)
  end
  begin
     id 19
     name lradius
     direction 1 -4.4901e-011 1.11983e-026   
     length 2.91878   
     axis 180 -30 -90   XYZ
    dof rx
    limits (-10.0 170.0)
  end
  begin
     id 20
     name lwrist
     direction 1 -4.48934e-011 1.88176e-026   
     length 1.45939   
     axis -1.23311e-014 90 90   XYZ
    dof ry
    limits (-180.0 0.0)
 end
  begin
     id 21 
     name lhand
     direction 1 -4.4895e-011 3.76352e-026   
     length 1.06566   
     axis -2.40147e-014 90 90   XYZ
    dof rx rz
    limits (-90.0 90.0)
           (-45.0 45.0)
  end
  begin
     id 22 
     name lfingers
     direction 1 -4.49005e-011 7.52705e-026   
     length 0.859162   
     axis -4.80295e-014 90 90   XYZ
    dof rx
    limits (0.0 90.0)
  end
  begin
     id 23
     name lthumb
     direction 0.707107 -6.34885e-011 0.707107   
     length 1.23359   
     axis -90 45 -9.86935e-015   XYZ
    dof rx rz
    limits (-45.0 45.0)
           (-45.0 45.0)
  end
  begin
     id 24 
     name rclavicle
     direction -0.91006 0.40451 -0.0903492   
     length 4.23293  
     axis 0 -0 0   XYZ 
    dof ry rz
    limits (-10.0 20.0)
           (-20.0 0.0)
  end
  begin
     id 25 
     name rhumerus
     direction -1 -4.4897e-011 1.7415e-027  
     length 5.49854   
     axis 180 30 90   XYZ
    dof rx ry rz
    limits (-90.0 60.0)
           (-90.0 90.0)
           (-90.0 90.0)
  end
  begin
     id 26 
     name rradius
     direction -1 -4.48963e-011 1.21259e-026   
     length 3.1186   
     axis 180 30 90   XYZ
    dof rx
    limits (-10.0 170.0)
  end
  begin
     id 27 
     name rwrist
     direction -1 -4.48967e-011 1.88176e-026   
     length 1.5593   
     axis -1.23311e-014 -90 -90   XYZ
    dof ry
    limits (-180.0 0.0)
  end
  begin
     id 28
     name rhand
     direction -1 -4.4895e-011 3.76352e-026   
     length 0.71207   
     axis -2.40147e-014 -90 -90   XYZ
    dof rx rz
    limits (-90.0 90.0)
           (-45.0 45.0)
  end
  begin
     id 29
     name rfingers
     direction -1 -4.49005e-011 7.52705e-026   
     length 0.574089   
     axis -4.80295e-014 -90 -90   XYZ
    dof rx
    limits (0.0 90.0)
  end
  begin
     id 30
     name rthumb
     direction -0.707107 -6.34982e-011 0.707107   
     length 0.824281   
     axis -90 -45 9.86935e-015   XYZ
    dof rx rz
    limits (-45.0 45.0)
           (-45.0 45.0)
  end
:hierarchy
  begin
    root lhipjoint rhipjoint lowerback
    lhipjoint lfemur
    lfemur ltibia
    ltibia lfoot
    lfoot ltoes
    rhipjoint rfemur
    rfemur rtibia
    rtibia rfoot
    rfoot rtoes
    lowerback upperback
    upperback thorax
    thorax lowerneck lclavicle rclavicle
    lowerneck upperneck
    upperneck head
    lclavicle lhumerus
    lhumerus lradius
    lradius lwrist
    lwrist lhand lthumb
    lhand lfingers
    rclavicle rhumerus
    rhumerus rradius
    rradius rwrist
    rwrist rhand rthumb
    rhand rfingers
  end

#!OML:ASF C:\ViconDB\ViconDB\414\Spring2016\042216\male.ASF
:FULLY-SPECIFIED
:DEGREES
317
root 16.9482 14.9689 2.6014 -161.177 47.0529 -173.184
lowerback 20.016 -4.89921 8.4252
upperback 1.85996 -4.43546 -0.766639
thorax -9.89742 -2.37862 -4.38097
lowerneck 2.00979 5.14346 -6.36612
upperneck -25.4697 8.25266 1.06825
head -8.5596 4.98697 0.686017
rclavicle -2.38542e-015 -2.78299e-014
rhumerus -47.1665 -6.42406 -78.7752
rradius 31.8411
rwrist 29.1588
rhand 10.0007 -24.3811
rfingers 7.12502
rthumb 35.127 -50.9074
lclavicle -2.38542e-015 -2.78299e-014
lhumerus -45.3248 20.1313 77.8591
lradius 31.5148
lwrist -20.1955
lhand -10.3308 11.6756
lfingers 7.12502
lthumb 15.6651 41.0614
rfemur -60.4229 -9.32164 27.158
rtibia 73.2767
rfoot -23.2605 -9.20661
rtoes -10.0082
lfemur -63.5503 -4.23265 -15.6311
ltibia 72.6826
lfoot -24.6992 16.2265
ltoes -18.4694
318
root 16.9892 14.8036 2.56756 -161.17 46.8867 -173.005
lowerback 20.3861 -4.99209 8.67882
upperback 1.79293 -4.4541 -0.724452
thorax -10.1957 -2.40589 -4.45073
lowerneck 1.75966 5.07783 -6.41988
upperneck -25.6576 8.23252 1.12803
head -8.58331 4.99729 0.720322
rclavicle 1.59028e-014 -1.98785e-014
rhumerus -42.1865 -5.4292 -81.071
rradius 32.9984
rwrist 28.0756
rhand 10.8812 -23.7005
rfingers 7.12502
rthumb 35.9617 -50.0264
lclavicle 1.59028e-014 -1.98785e-014
lhumerus -40.9026 20.7457 79.1989
lradius 31.6487
lwrist -19.9811
lhand -10.8165 11.481
lfingers 7.12502
lthumb 15.1973 40.9029
rfemur -60.2951 -9.25862 27.2256
rtibia 74.6061
rfoot -26.2984 -9.50369
rtoes -8.30923
lfemur -64.206 -4.24063 -15.6893
ltibia 74.6425
lfoot -26.4565 16.9841
ltoes -17.5226
319
root 17.0141 14.6524 2.54597 -160.805 46.6849 -172.528
lowerback 20.5042 -5.10227 9.01627
upperback 1.71768 -4.49222 -0.58539
thorax -10.3667 -2.44205 -4.46526
lowerneck 1.46474 5.07403 -6.32607
upperneck -25.9818 8.30533 1.04078
head -8.63737 5.06029 0.671453
rclavicle 1.56245e-013 -4.92986e-014
rhumerus -37.1605 -3.58913 -83.325
rradius 34.5042
rwrist 26.0278
rhand 11.2355 -24.2447
rfingers 7.12502
rthumb 36.2973 -50.4876
lclavicle 1.56245e-013 -4.92986e-014
lhumerus -36.6173 21.1225 80.756
lradius 32.6185
lwrist -18.7855
lhand -10.4049 11.6723
lfingers 7.12502
lthumb 15.5937 41.0637
rfemur -60.4681 -8.95021 27.5493
rtibia 76.0053
rfoot -28.6098 -9.88264
rtoes -7.37536
lfemur -65.0074 -4.20281 -15.5515
ltibia 76.4086
lfoot -27.7192 17.9155
ltoes -16.8923
320
root 17.0271 14.5514 2.53678 -161.154 46.5551 -173.081
lowerback 20.5373 -5.12373 8.83693
upperback 1.61901 -4.5756 -0.697224
thorax -10.5044 -2.48756 -4.4566
lowerneck 1.39537 4.98339 -6.23597
upperneck -26.5774 8.28975 1.04072
head -8.82741 5.0817 0.644759
rclavicle -2.94201e-014 5.56597e-015
rhumerus -32.4593 -1.62908 -85.2069
rradius 36.3722
rwrist 23.791
rhand 11.8832 -24.0282
rfingers 7.12502
rthumb 36.9102 -50.1158
lclavicle -2.94201e-014 5.56597e-015
lhumerus -32.3101 20.5859 82.5621
lradius 33.5703
lwrist -17.5601
lhand -10.4498 12.013
lfingers 7.12502
lthumb 15.5505 41.4078
rfemur -61.3052 -8.65651 27.0878
rtibia 77.7777
rfoot -29.563 -10.7352
rtoes -7.32474
lfemur -65.6912 -4.52548 -16.023
ltibia 77.9317
lfoot -28.868 18.6065
ltoes -18.068
321
root 17.038 14.4483 2.54563 -161.782 46.2634 -173.718
lowerback 20.7634 -5.18019 8.44317
upperback 1.62028 -4.72109 -0.748614
thorax -10.621 -2.54044 -4.23339
lowerneck 0.859948 4.87696 -6.24168
upperneck -26.831 8.26831 1.07872
head -8.81978 5.10698 0.671929
rclavicle 4.01545e-014 -2.38542e-014
rhumerus -27.9226 0.668977 -86.63
rradius 38.4891
rwrist 21.3366
rhand 11.7346 -23.8125
rfingers 7.12502
rthumb 36.7696 -49.9362
lclavicle 4.01545e-014 -2.38542e-014
lhumerus -27.9938 19.5569 84.3568
lradius 34.6794
lwrist -15.6342
lhand -9.8324 11.5915
lfingers 7.12502
lthumb 16.145 40.939
rfemur -62.3637 -8.28044 26.55
rtibia 79.694
rfoot -29.7307 -12.2007
rtoes -8.22175
lfemur -66.2258 -5.04305 -16.3465
ltibia 79.2989
lfoot -29.419 18.9971
ltoes -17.797
322
root 17.0556 14.3079 2.54322 -162.407 46.2787 -174.04
lowerback 21.0148 -5.15517 8.27923
upperback 1.81783 -4.70356 -0.867382
thorax -10.5301 -2.5113 -4.27409
lowerneck 0.254616 4.7016 -6.17577
upperneck -27.2229 8.18752 1.10394
head -8.84189 5.11193 0.686504
rclavicle 6.32135e-014 -2.46493e-014
rhumerus -23.3469 2.9957 -87.6073
rradius 40.8725
rwrist 18.312
rhand 11.3341 -23.8283
rfingers 7.12502
rthumb 36.3906 -50.0479
lclavicle 6.32135e-014 -2.46493e-014
lhumerus -23.3197 17.9348 86.1579
lradius 35.7463
lwrist -12.7342
lhand -9.90012 11.6397
lfingers 7.12502
lthumb 16.0798 40.9925
rfemur -63.0877 -8.64849 26.577
rtibia 81.53
rfoot -29.9832 -12.812
rtoes -9.09648
lfemur -66.6034 -5.04661 -16.6897
ltibia 80.7702
lfoot -30.0838 19.207
ltoes -17.1941
323
root 17.0853 14.1959 2.53156 -163.098 46.3209 -174.283
lowerback 21.3337 -5.13412 8.18191
upperback 2.00323 -4.66963 -0.999432
thorax -10.494 -2.47925 -4.36881
lowerneck -0.00839254 4.50942 -5.70759
upperneck -27.9267 8.00096 0.669988
head -8.99536 5.07363 0.467961
rclavicle 2.8625e-014 -1.19271e-014
rhumerus -18.967 4.95652 -88.2059
rradius 43.1649
rwrist 15.9596
rhand 10.9617 -23.5961
rfingers 7.12502
rthumb 36.0379 -49.9033
lclavicle 2.8625e-014 -1.19271e-014
lhumerus -19.3114 15.1072 87.7485
lradius 37.6386
lwrist -8.89306
lhand -10.5872 11.8895
lfingers 7.12502
lthumb 15.4182 41.2945
rfemur -63.3002 -8.91519 26.5439
rtibia 83.1688
rfoot -30.7912 -13.055
rtoes -9.09938
lfemur -66.5866 -4.96993 -17.0465
ltibia 82.1306
lfoot -30.968 19.6469
ltoes -17.6891
324
root 17.1182 14.0837 2.50914 -163.87 46.5126 -174.615
lowerback 21.7755 -5.10178 8.02442
upperback 1.96677 -4.63693 -1.15329
thorax -10.7729 -2.46771 -4.4396
lowerneck -0.429615 4.4169 -5.6965
upperneck -27.937 7.96873 0.795477
head -8.92572 5.06489 0.525171
rclavicle -6.04305e-014 2.38542e-015
rhumerus -15.1889 7.58769 -88.3508
rradius 45.6645
rwrist 13.3341
rhand 10.3915 -23.506
rfingers 7.12502
rthumb 35.4975 -49.9444
lclavicle -6.04305e-014 2.38542e-015
lhumerus -15.774 12.307 88.7365
lradius 39.5081
lwrist -6.77331
lhand -10.3891 11.776
lfingers 7.12502
lthumb 15.6089 41.1662
rfemur -63.3908 -9.38094 26.5116
rtibia 84.7097
rfoot -31.6721 -13.0481
rtoes -8.53981
lfemur -66.4883 -4.79443 -17.5036
ltibia 83.4976
lfoot -31.8504 19.99
ltoes -17.4501
325
root 17.1508 13.9819 2.49498 -164.162 46.8662 -174.573
lowerback 21.9094 -4.98233 7.99768
upperback 1.92525 -4.48585 -1.24261
thorax -10.8768 -2.40376 -4.56724
lowerneck -0.659902 4.34151 -5.24239
upperneck -28.1704 7.87188 0.407876
head -8.92644 5.0334 0.328233
rclavicle -1.59028e-015 1.66979e-014
rhumerus -11.2311 9.75873 -88.028
rradius 48.0081
rwrist 11.9255
rhand 10.884 -22.8622
rfingers 7.12502
rthumb 35.9643 -49.1875
lclavicle -1.59028e-015 1.66979e-014
lhumerus -12.308 8.61443 89.1524
lradius 41.4251
lwrist -4.32797
lhand -10.8398 11.3491
lfingers 7.12502
lthumb 15.1748 40.7727
rfemur -63.6721 -9.33696 26.7788
rtibia 86.0441
rfoot -32.1532 -13.8778
rtoes -9.72567
lfemur -66.6005 -4.22526 -17.7014
ltibia 84.7691
lfoot -32.7843 20.0807
ltoes -17.6194
326
root 17.1694 13.8854 2.49309 -164.69 46.8423 -174.859
lowerback 22.0638 -4.9939 7.93804
upperback 1.8706 -4.5141 -1.34146
thorax -11.0316 -2.42386 -4.62627
lowerneck -1.34501 4.22638 -5.3205
upperneck -27.8962 7.82392 0.671198
head -8.71821 5.00823 0.46447
rclavicle -2.98177e-014 1.51076e-014
rhumerus -6.89312 11.9569 -87.169
rradius 49.827
rwrist 11.1471
rhand 11.0268 -21.8759
rfingers 7.12502
rthumb 36.0995 -48.1679
lclavicle -2.98177e-014 1.51076e-014
lhumerus -8.86355 5.80733 89.1646
lradius 43.691
lwrist -3.06473
lhand -10.0592 11.3815
lfingers 7.12502
lthumb 15.9266 40.7466
rfemur -63.9067 -9.58055 26.7788
rtibia 87.2331
rfoot -32.6805 -14.4599
rtoes -9.43079
lfemur -66.7653 -3.98857 -18.0421
ltibia 85.9139
lfoot -33.4763 19.9135
ltoes -17.4805
327
root 17.2143 13.8063 2.45991 -165.064 47.3297 -174.622
lowerback 21.8212 -4.87281 7.98679
upperback 2.06197 -4.36728 -1.40645
thorax -10.6687 -2.33997 -4.79316
lowerneck -2.27234 4.16764 -5.15811
upperneck -27.3207 7.78114 0.662792
head -8.34239 4.97717 0.484938
rclavicle -3.18055e-015 -2.38542e-015
rhumerus -2.60776 13.9143 -85.9648
rradius 51.8828
rwrist 11.3011
rhand 11.3647 -20.8593
rfingers 7.12502
rthumb 36.4195 -47.0716
lclavicle -3.18055e-015 -2.38542e-015
lhumerus -5.61514 3.01575 88.7513
lradius 46.6556
lwrist -1.28459
lhand -10.5423 11.2241
lfingers 7.12502
lthumb 15.4613 40.6258
rfemur -63.4609 -9.40249 26.9346
rtibia 88.2075
rfoot -33.5541 -14.5349
rtoes -8.82096
lfemur -66.3722 -3.13857 -18.1825
ltibia 86.9774
lfoot -34.4407 19.7897
ltoes -17.7091
328
root 17.2495 13.7342 2.43978 -165.582 47.6333 -174.631
lowerback 21.7964 -4.80158 7.96979
upperback 2.10321 -4.28655 -1.47246
thorax -10.6003 -2.29945 -4.88667
lowerneck -2.60268 4.12298 -4.91299
upperneck -27.2145 7.69369 0.398657
head -8.2233 4.94016 0.376842
rclavicle 9.54166e-014 -5.56597e-015
rhumerus 1.46364 15.7957 -84.4266
rradius 54.1603
rwrist 10.2075
rhand 10.3518 -19.7582
rfingers 7.12502
rthumb 35.46 -46.2056
lclavicle 9.54166e-014 -5.56597e-015
lhumerus -2.57136 0.65688 88.1108
lradius 50.0633
lwrist -0.0289422
lhand -10.1974 10.6932
lfingers 7.12502
lthumb 15.7936 40.069
rfemur -63.223 -9.4053 26.9792
rtibia 89.1014
rfoot -34.197 -14.7155
rtoes -8.51441
lfemur -66.0332 -2.482 -18.425
ltibia 87.8918
lfoot -35.2023 19.5729
ltoes -17.7243
329
root 17.2896 13.6694 2.4174 -166.013 47.7818 -174.739
lowerback 21.2402 -4.74514 8.01158
upperback 2.27403 -4.26168 -1.55112
thorax -10.1097 -2.27169 -5.03476
lowerneck -3.28106 4.1224 -4.70005
upperneck -26.9028 7.67911 0.119052
head -7.97707 4.94523 0.281375
rclavicle -5.36719e-014 1.19271e-014
rhumerus 5.67596 17.4825 -82.3362
rradius 56.7711
rwrist 9.42271
rhand 10.2232 -19.3695
rfingers 7.12502
rthumb 35.338 -45.846
lclavicle -5.36719e-014 1.19271e-014
lhumerus 0.690273 -1.38264 87.2214
lradius 53.7748
lwrist 0.80828
lhand -9.40835 11.063
lfingers 7.12502
lthumb 16.5533 40.377
rfemur -63.105 -9.63536 26.996
rtibia 89.9282
rfoot -34.7494 -14.5572
rtoes -8.71854
lfemur -65.847 -1.92405 -18.7063
ltibia 88.7044
lfoot -35.9143 19.344
ltoes -17.7677
